<mxfile host="app.diagrams.net" modified="2022-11-04T21:14:34.470Z" agent="5.0 (Windows NT 10.0; Win64; x64) AppleWebKit/537.36 (KHTML, like Gecko) Chrome/106.0.0.0 Safari/537.36" etag="_XupC87B6S-NsqIWVYgl" version="20.5.1" type="github">
  <diagram id="R2lEEEUBdFMjLlhIrx00" name="Page-1">
    <mxGraphModel dx="2213" dy="808" grid="1" gridSize="5" guides="1" tooltips="1" connect="1" arrows="1" fold="1" page="1" pageScale="1" pageWidth="850" pageHeight="1100" math="0" shadow="0" extFonts="Permanent Marker^https://fonts.googleapis.com/css?family=Permanent+Marker">
      <root>
        <mxCell id="0" />
        <mxCell id="1" parent="0" />
        <mxCell id="SdNBDiDPCRayU0WkWFOt-101" value="Osoba" style="shape=table;startSize=30;container=1;collapsible=1;childLayout=tableLayout;fixedRows=1;rowLines=0;fontStyle=1;align=center;resizeLast=1;" parent="1" vertex="1">
          <mxGeometry x="-785" y="55" width="180" height="190" as="geometry">
            <mxRectangle x="-840" y="10" width="75" height="30" as="alternateBounds" />
          </mxGeometry>
        </mxCell>
        <mxCell id="SdNBDiDPCRayU0WkWFOt-102" value="" style="shape=tableRow;horizontal=0;startSize=0;swimlaneHead=0;swimlaneBody=0;fillColor=none;collapsible=0;dropTarget=0;points=[[0,0.5],[1,0.5]];portConstraint=eastwest;top=0;left=0;right=0;bottom=1;" parent="SdNBDiDPCRayU0WkWFOt-101" vertex="1">
          <mxGeometry y="30" width="180" height="30" as="geometry" />
        </mxCell>
        <mxCell id="SdNBDiDPCRayU0WkWFOt-103" value="PK" style="shape=partialRectangle;connectable=0;fillColor=none;top=0;left=0;bottom=0;right=0;fontStyle=1;overflow=hidden;" parent="SdNBDiDPCRayU0WkWFOt-102" vertex="1">
          <mxGeometry width="30" height="30" as="geometry">
            <mxRectangle width="30" height="30" as="alternateBounds" />
          </mxGeometry>
        </mxCell>
        <mxCell id="SdNBDiDPCRayU0WkWFOt-104" value="Rodne cislo" style="shape=partialRectangle;connectable=0;fillColor=none;top=0;left=0;bottom=0;right=0;align=left;spacingLeft=6;fontStyle=5;overflow=hidden;" parent="SdNBDiDPCRayU0WkWFOt-102" vertex="1">
          <mxGeometry x="30" width="150" height="30" as="geometry">
            <mxRectangle width="150" height="30" as="alternateBounds" />
          </mxGeometry>
        </mxCell>
        <mxCell id="SdNBDiDPCRayU0WkWFOt-105" value="" style="shape=tableRow;horizontal=0;startSize=0;swimlaneHead=0;swimlaneBody=0;fillColor=none;collapsible=0;dropTarget=0;points=[[0,0.5],[1,0.5]];portConstraint=eastwest;top=0;left=0;right=0;bottom=0;" parent="SdNBDiDPCRayU0WkWFOt-101" vertex="1">
          <mxGeometry y="60" width="180" height="30" as="geometry" />
        </mxCell>
        <mxCell id="SdNBDiDPCRayU0WkWFOt-106" value="+" style="shape=partialRectangle;connectable=0;fillColor=none;top=0;left=0;bottom=0;right=0;editable=1;overflow=hidden;" parent="SdNBDiDPCRayU0WkWFOt-105" vertex="1">
          <mxGeometry width="30" height="30" as="geometry">
            <mxRectangle width="30" height="30" as="alternateBounds" />
          </mxGeometry>
        </mxCell>
        <mxCell id="SdNBDiDPCRayU0WkWFOt-107" value="Jmeno" style="shape=partialRectangle;connectable=0;fillColor=none;top=0;left=0;bottom=0;right=0;align=left;spacingLeft=6;overflow=hidden;" parent="SdNBDiDPCRayU0WkWFOt-105" vertex="1">
          <mxGeometry x="30" width="150" height="30" as="geometry">
            <mxRectangle width="150" height="30" as="alternateBounds" />
          </mxGeometry>
        </mxCell>
        <mxCell id="SdNBDiDPCRayU0WkWFOt-108" value="" style="shape=tableRow;horizontal=0;startSize=0;swimlaneHead=0;swimlaneBody=0;fillColor=none;collapsible=0;dropTarget=0;points=[[0,0.5],[1,0.5]];portConstraint=eastwest;top=0;left=0;right=0;bottom=0;" parent="SdNBDiDPCRayU0WkWFOt-101" vertex="1">
          <mxGeometry y="90" width="180" height="30" as="geometry" />
        </mxCell>
        <mxCell id="SdNBDiDPCRayU0WkWFOt-109" value="+" style="shape=partialRectangle;connectable=0;fillColor=none;top=0;left=0;bottom=0;right=0;editable=1;overflow=hidden;" parent="SdNBDiDPCRayU0WkWFOt-108" vertex="1">
          <mxGeometry width="30" height="30" as="geometry">
            <mxRectangle width="30" height="30" as="alternateBounds" />
          </mxGeometry>
        </mxCell>
        <mxCell id="SdNBDiDPCRayU0WkWFOt-110" value="Prijmeni" style="shape=partialRectangle;connectable=0;fillColor=none;top=0;left=0;bottom=0;right=0;align=left;spacingLeft=6;overflow=hidden;" parent="SdNBDiDPCRayU0WkWFOt-108" vertex="1">
          <mxGeometry x="30" width="150" height="30" as="geometry">
            <mxRectangle width="150" height="30" as="alternateBounds" />
          </mxGeometry>
        </mxCell>
        <mxCell id="SdNBDiDPCRayU0WkWFOt-111" value="" style="shape=tableRow;horizontal=0;startSize=0;swimlaneHead=0;swimlaneBody=0;fillColor=none;collapsible=0;dropTarget=0;points=[[0,0.5],[1,0.5]];portConstraint=eastwest;top=0;left=0;right=0;bottom=0;" parent="SdNBDiDPCRayU0WkWFOt-101" vertex="1">
          <mxGeometry y="120" width="180" height="30" as="geometry" />
        </mxCell>
        <mxCell id="SdNBDiDPCRayU0WkWFOt-112" value="+" style="shape=partialRectangle;connectable=0;fillColor=none;top=0;left=0;bottom=0;right=0;editable=1;overflow=hidden;" parent="SdNBDiDPCRayU0WkWFOt-111" vertex="1">
          <mxGeometry width="30" height="30" as="geometry">
            <mxRectangle width="30" height="30" as="alternateBounds" />
          </mxGeometry>
        </mxCell>
        <mxCell id="SdNBDiDPCRayU0WkWFOt-113" value="Telefon" style="shape=partialRectangle;connectable=0;fillColor=none;top=0;left=0;bottom=0;right=0;align=left;spacingLeft=6;overflow=hidden;" parent="SdNBDiDPCRayU0WkWFOt-111" vertex="1">
          <mxGeometry x="30" width="150" height="30" as="geometry">
            <mxRectangle width="150" height="30" as="alternateBounds" />
          </mxGeometry>
        </mxCell>
        <mxCell id="SdNBDiDPCRayU0WkWFOt-114" style="shape=tableRow;horizontal=0;startSize=0;swimlaneHead=0;swimlaneBody=0;fillColor=none;collapsible=0;dropTarget=0;points=[[0,0.5],[1,0.5]];portConstraint=eastwest;top=0;left=0;right=0;bottom=0;" parent="SdNBDiDPCRayU0WkWFOt-101" vertex="1">
          <mxGeometry y="150" width="180" height="30" as="geometry" />
        </mxCell>
        <mxCell id="SdNBDiDPCRayU0WkWFOt-115" value="+" style="shape=partialRectangle;connectable=0;fillColor=none;top=0;left=0;bottom=0;right=0;editable=1;overflow=hidden;" parent="SdNBDiDPCRayU0WkWFOt-114" vertex="1">
          <mxGeometry width="30" height="30" as="geometry">
            <mxRectangle width="30" height="30" as="alternateBounds" />
          </mxGeometry>
        </mxCell>
        <mxCell id="SdNBDiDPCRayU0WkWFOt-116" value="E-mail" style="shape=partialRectangle;connectable=0;fillColor=none;top=0;left=0;bottom=0;right=0;align=left;spacingLeft=6;overflow=hidden;" parent="SdNBDiDPCRayU0WkWFOt-114" vertex="1">
          <mxGeometry x="30" width="150" height="30" as="geometry">
            <mxRectangle width="150" height="30" as="alternateBounds" />
          </mxGeometry>
        </mxCell>
        <mxCell id="SdNBDiDPCRayU0WkWFOt-117" value="Organizace" style="shape=table;startSize=30;container=1;collapsible=1;childLayout=tableLayout;fixedRows=1;rowLines=0;fontStyle=1;align=center;resizeLast=1;" parent="1" vertex="1">
          <mxGeometry x="-385" y="55" width="180" height="220" as="geometry" />
        </mxCell>
        <mxCell id="SdNBDiDPCRayU0WkWFOt-118" value="" style="shape=tableRow;horizontal=0;startSize=0;swimlaneHead=0;swimlaneBody=0;fillColor=none;collapsible=0;dropTarget=0;points=[[0,0.5],[1,0.5]];portConstraint=eastwest;top=0;left=0;right=0;bottom=1;" parent="SdNBDiDPCRayU0WkWFOt-117" vertex="1">
          <mxGeometry y="30" width="180" height="30" as="geometry" />
        </mxCell>
        <mxCell id="SdNBDiDPCRayU0WkWFOt-119" value="PK" style="shape=partialRectangle;connectable=0;fillColor=none;top=0;left=0;bottom=0;right=0;fontStyle=1;overflow=hidden;" parent="SdNBDiDPCRayU0WkWFOt-118" vertex="1">
          <mxGeometry width="30" height="30" as="geometry">
            <mxRectangle width="30" height="30" as="alternateBounds" />
          </mxGeometry>
        </mxCell>
        <mxCell id="SdNBDiDPCRayU0WkWFOt-120" value="ICO" style="shape=partialRectangle;connectable=0;fillColor=none;top=0;left=0;bottom=0;right=0;align=left;spacingLeft=6;fontStyle=5;overflow=hidden;" parent="SdNBDiDPCRayU0WkWFOt-118" vertex="1">
          <mxGeometry x="30" width="150" height="30" as="geometry">
            <mxRectangle width="150" height="30" as="alternateBounds" />
          </mxGeometry>
        </mxCell>
        <mxCell id="SdNBDiDPCRayU0WkWFOt-121" value="" style="shape=tableRow;horizontal=0;startSize=0;swimlaneHead=0;swimlaneBody=0;fillColor=none;collapsible=0;dropTarget=0;points=[[0,0.5],[1,0.5]];portConstraint=eastwest;top=0;left=0;right=0;bottom=0;" parent="SdNBDiDPCRayU0WkWFOt-117" vertex="1">
          <mxGeometry y="60" width="180" height="30" as="geometry" />
        </mxCell>
        <mxCell id="SdNBDiDPCRayU0WkWFOt-122" value="+" style="shape=partialRectangle;connectable=0;fillColor=none;top=0;left=0;bottom=0;right=0;editable=1;overflow=hidden;" parent="SdNBDiDPCRayU0WkWFOt-121" vertex="1">
          <mxGeometry width="30" height="30" as="geometry">
            <mxRectangle width="30" height="30" as="alternateBounds" />
          </mxGeometry>
        </mxCell>
        <mxCell id="SdNBDiDPCRayU0WkWFOt-123" value="Uredni nazev" style="shape=partialRectangle;connectable=0;fillColor=none;top=0;left=0;bottom=0;right=0;align=left;spacingLeft=6;overflow=hidden;" parent="SdNBDiDPCRayU0WkWFOt-121" vertex="1">
          <mxGeometry x="30" width="150" height="30" as="geometry">
            <mxRectangle width="150" height="30" as="alternateBounds" />
          </mxGeometry>
        </mxCell>
        <mxCell id="SdNBDiDPCRayU0WkWFOt-124" value="" style="shape=tableRow;horizontal=0;startSize=0;swimlaneHead=0;swimlaneBody=0;fillColor=none;collapsible=0;dropTarget=0;points=[[0,0.5],[1,0.5]];portConstraint=eastwest;top=0;left=0;right=0;bottom=0;" parent="SdNBDiDPCRayU0WkWFOt-117" vertex="1">
          <mxGeometry y="90" width="180" height="30" as="geometry" />
        </mxCell>
        <mxCell id="SdNBDiDPCRayU0WkWFOt-125" value="+" style="shape=partialRectangle;connectable=0;fillColor=none;top=0;left=0;bottom=0;right=0;editable=1;overflow=hidden;" parent="SdNBDiDPCRayU0WkWFOt-124" vertex="1">
          <mxGeometry width="30" height="30" as="geometry">
            <mxRectangle width="30" height="30" as="alternateBounds" />
          </mxGeometry>
        </mxCell>
        <mxCell id="SdNBDiDPCRayU0WkWFOt-126" value="Pravni forma" style="shape=partialRectangle;connectable=0;fillColor=none;top=0;left=0;bottom=0;right=0;align=left;spacingLeft=6;overflow=hidden;" parent="SdNBDiDPCRayU0WkWFOt-124" vertex="1">
          <mxGeometry x="30" width="150" height="30" as="geometry">
            <mxRectangle width="150" height="30" as="alternateBounds" />
          </mxGeometry>
        </mxCell>
        <mxCell id="SdNBDiDPCRayU0WkWFOt-127" value="" style="shape=tableRow;horizontal=0;startSize=0;swimlaneHead=0;swimlaneBody=0;fillColor=none;collapsible=0;dropTarget=0;points=[[0,0.5],[1,0.5]];portConstraint=eastwest;top=0;left=0;right=0;bottom=0;" parent="SdNBDiDPCRayU0WkWFOt-117" vertex="1">
          <mxGeometry y="120" width="180" height="30" as="geometry" />
        </mxCell>
        <mxCell id="SdNBDiDPCRayU0WkWFOt-128" value="+" style="shape=partialRectangle;connectable=0;fillColor=none;top=0;left=0;bottom=0;right=0;editable=1;overflow=hidden;" parent="SdNBDiDPCRayU0WkWFOt-127" vertex="1">
          <mxGeometry width="30" height="30" as="geometry">
            <mxRectangle width="30" height="30" as="alternateBounds" />
          </mxGeometry>
        </mxCell>
        <mxCell id="SdNBDiDPCRayU0WkWFOt-129" value="Sidlo" style="shape=partialRectangle;connectable=0;fillColor=none;top=0;left=0;bottom=0;right=0;align=left;spacingLeft=6;overflow=hidden;" parent="SdNBDiDPCRayU0WkWFOt-127" vertex="1">
          <mxGeometry x="30" width="150" height="30" as="geometry">
            <mxRectangle width="150" height="30" as="alternateBounds" />
          </mxGeometry>
        </mxCell>
        <mxCell id="SdNBDiDPCRayU0WkWFOt-130" style="shape=tableRow;horizontal=0;startSize=0;swimlaneHead=0;swimlaneBody=0;fillColor=none;collapsible=0;dropTarget=0;points=[[0,0.5],[1,0.5]];portConstraint=eastwest;top=0;left=0;right=0;bottom=0;" parent="SdNBDiDPCRayU0WkWFOt-117" vertex="1">
          <mxGeometry y="150" width="180" height="30" as="geometry" />
        </mxCell>
        <mxCell id="SdNBDiDPCRayU0WkWFOt-131" value="+" style="shape=partialRectangle;connectable=0;fillColor=none;top=0;left=0;bottom=0;right=0;editable=1;overflow=hidden;" parent="SdNBDiDPCRayU0WkWFOt-130" vertex="1">
          <mxGeometry width="30" height="30" as="geometry">
            <mxRectangle width="30" height="30" as="alternateBounds" />
          </mxGeometry>
        </mxCell>
        <mxCell id="SdNBDiDPCRayU0WkWFOt-132" value="Datova schranka" style="shape=partialRectangle;connectable=0;fillColor=none;top=0;left=0;bottom=0;right=0;align=left;spacingLeft=6;overflow=hidden;" parent="SdNBDiDPCRayU0WkWFOt-130" vertex="1">
          <mxGeometry x="30" width="150" height="30" as="geometry">
            <mxRectangle width="150" height="30" as="alternateBounds" />
          </mxGeometry>
        </mxCell>
        <mxCell id="SdNBDiDPCRayU0WkWFOt-133" style="shape=tableRow;horizontal=0;startSize=0;swimlaneHead=0;swimlaneBody=0;fillColor=none;collapsible=0;dropTarget=0;points=[[0,0.5],[1,0.5]];portConstraint=eastwest;top=0;left=0;right=0;bottom=0;" parent="SdNBDiDPCRayU0WkWFOt-117" vertex="1">
          <mxGeometry y="180" width="180" height="30" as="geometry" />
        </mxCell>
        <mxCell id="SdNBDiDPCRayU0WkWFOt-134" value="+" style="shape=partialRectangle;connectable=0;fillColor=none;top=0;left=0;bottom=0;right=0;editable=1;overflow=hidden;" parent="SdNBDiDPCRayU0WkWFOt-133" vertex="1">
          <mxGeometry width="30" height="30" as="geometry">
            <mxRectangle width="30" height="30" as="alternateBounds" />
          </mxGeometry>
        </mxCell>
        <mxCell id="SdNBDiDPCRayU0WkWFOt-135" value="Web" style="shape=partialRectangle;connectable=0;fillColor=none;top=0;left=0;bottom=0;right=0;align=left;spacingLeft=6;overflow=hidden;" parent="SdNBDiDPCRayU0WkWFOt-133" vertex="1">
          <mxGeometry x="30" width="150" height="30" as="geometry">
            <mxRectangle width="150" height="30" as="alternateBounds" />
          </mxGeometry>
        </mxCell>
        <mxCell id="SdNBDiDPCRayU0WkWFOt-180" value="&lt;&lt;week&gt;&gt;&#xa;Komisi" style="shape=table;startSize=30;container=1;collapsible=1;childLayout=tableLayout;fixedRows=1;rowLines=0;fontStyle=1;align=center;resizeLast=1;" parent="1" vertex="1">
          <mxGeometry x="-785" y="495" width="180" height="160" as="geometry" />
        </mxCell>
        <mxCell id="SdNBDiDPCRayU0WkWFOt-181" value="" style="shape=tableRow;horizontal=0;startSize=0;swimlaneHead=0;swimlaneBody=0;fillColor=none;collapsible=0;dropTarget=0;points=[[0,0.5],[1,0.5]];portConstraint=eastwest;top=0;left=0;right=0;bottom=1;" parent="SdNBDiDPCRayU0WkWFOt-180" vertex="1">
          <mxGeometry y="30" width="180" height="30" as="geometry" />
        </mxCell>
        <mxCell id="SdNBDiDPCRayU0WkWFOt-182" value="D" style="shape=partialRectangle;connectable=0;fillColor=none;top=0;left=0;bottom=0;right=0;fontStyle=1;overflow=hidden;" parent="SdNBDiDPCRayU0WkWFOt-181" vertex="1">
          <mxGeometry width="30" height="30" as="geometry">
            <mxRectangle width="30" height="30" as="alternateBounds" />
          </mxGeometry>
        </mxCell>
        <mxCell id="SdNBDiDPCRayU0WkWFOt-183" value="Kod" style="shape=partialRectangle;connectable=0;fillColor=none;top=0;left=0;bottom=0;right=0;align=left;spacingLeft=6;fontStyle=5;overflow=hidden;" parent="SdNBDiDPCRayU0WkWFOt-181" vertex="1">
          <mxGeometry x="30" width="150" height="30" as="geometry">
            <mxRectangle width="150" height="30" as="alternateBounds" />
          </mxGeometry>
        </mxCell>
        <mxCell id="SdNBDiDPCRayU0WkWFOt-184" value="" style="shape=tableRow;horizontal=0;startSize=0;swimlaneHead=0;swimlaneBody=0;fillColor=none;collapsible=0;dropTarget=0;points=[[0,0.5],[1,0.5]];portConstraint=eastwest;top=0;left=0;right=0;bottom=0;" parent="SdNBDiDPCRayU0WkWFOt-180" vertex="1">
          <mxGeometry y="60" width="180" height="30" as="geometry" />
        </mxCell>
        <mxCell id="SdNBDiDPCRayU0WkWFOt-185" value="+" style="shape=partialRectangle;connectable=0;fillColor=none;top=0;left=0;bottom=0;right=0;editable=1;overflow=hidden;" parent="SdNBDiDPCRayU0WkWFOt-184" vertex="1">
          <mxGeometry width="30" height="30" as="geometry">
            <mxRectangle width="30" height="30" as="alternateBounds" />
          </mxGeometry>
        </mxCell>
        <mxCell id="SdNBDiDPCRayU0WkWFOt-186" value="Nazev" style="shape=partialRectangle;connectable=0;fillColor=none;top=0;left=0;bottom=0;right=0;align=left;spacingLeft=6;overflow=hidden;" parent="SdNBDiDPCRayU0WkWFOt-184" vertex="1">
          <mxGeometry x="30" width="150" height="30" as="geometry">
            <mxRectangle width="150" height="30" as="alternateBounds" />
          </mxGeometry>
        </mxCell>
        <mxCell id="SdNBDiDPCRayU0WkWFOt-187" value="" style="shape=tableRow;horizontal=0;startSize=0;swimlaneHead=0;swimlaneBody=0;fillColor=none;collapsible=0;dropTarget=0;points=[[0,0.5],[1,0.5]];portConstraint=eastwest;top=0;left=0;right=0;bottom=0;" parent="SdNBDiDPCRayU0WkWFOt-180" vertex="1">
          <mxGeometry y="90" width="180" height="30" as="geometry" />
        </mxCell>
        <mxCell id="SdNBDiDPCRayU0WkWFOt-188" value="+" style="shape=partialRectangle;connectable=0;fillColor=none;top=0;left=0;bottom=0;right=0;editable=1;overflow=hidden;" parent="SdNBDiDPCRayU0WkWFOt-187" vertex="1">
          <mxGeometry width="30" height="30" as="geometry">
            <mxRectangle width="30" height="30" as="alternateBounds" />
          </mxGeometry>
        </mxCell>
        <mxCell id="SdNBDiDPCRayU0WkWFOt-189" value="Datum jmenovani" style="shape=partialRectangle;connectable=0;fillColor=none;top=0;left=0;bottom=0;right=0;align=left;spacingLeft=6;overflow=hidden;" parent="SdNBDiDPCRayU0WkWFOt-187" vertex="1">
          <mxGeometry x="30" width="150" height="30" as="geometry">
            <mxRectangle width="150" height="30" as="alternateBounds" />
          </mxGeometry>
        </mxCell>
        <mxCell id="SdNBDiDPCRayU0WkWFOt-190" value="" style="shape=tableRow;horizontal=0;startSize=0;swimlaneHead=0;swimlaneBody=0;fillColor=none;collapsible=0;dropTarget=0;points=[[0,0.5],[1,0.5]];portConstraint=eastwest;top=0;left=0;right=0;bottom=0;" parent="SdNBDiDPCRayU0WkWFOt-180" vertex="1">
          <mxGeometry y="120" width="180" height="30" as="geometry" />
        </mxCell>
        <mxCell id="SdNBDiDPCRayU0WkWFOt-191" value="+" style="shape=partialRectangle;connectable=0;fillColor=none;top=0;left=0;bottom=0;right=0;editable=1;overflow=hidden;" parent="SdNBDiDPCRayU0WkWFOt-190" vertex="1">
          <mxGeometry width="30" height="30" as="geometry">
            <mxRectangle width="30" height="30" as="alternateBounds" />
          </mxGeometry>
        </mxCell>
        <mxCell id="SdNBDiDPCRayU0WkWFOt-192" value="Datum ukonceni cinnosti" style="shape=partialRectangle;connectable=0;fillColor=none;top=0;left=0;bottom=0;right=0;align=left;spacingLeft=6;overflow=hidden;" parent="SdNBDiDPCRayU0WkWFOt-190" vertex="1">
          <mxGeometry x="30" width="150" height="30" as="geometry">
            <mxRectangle width="150" height="30" as="alternateBounds" />
          </mxGeometry>
        </mxCell>
        <mxCell id="SdNBDiDPCRayU0WkWFOt-214" value="&#xa;Clen komisi" style="shape=table;startSize=30;container=1;collapsible=1;childLayout=tableLayout;fixedRows=1;rowLines=0;fontStyle=1;align=center;resizeLast=1;" parent="1" vertex="1">
          <mxGeometry x="-785" y="285" width="180" height="70" as="geometry" />
        </mxCell>
        <mxCell id="SdNBDiDPCRayU0WkWFOt-224" value="" style="shape=tableRow;horizontal=0;startSize=0;swimlaneHead=0;swimlaneBody=0;fillColor=none;collapsible=0;dropTarget=0;points=[[0,0.5],[1,0.5]];portConstraint=eastwest;top=0;left=0;right=0;bottom=0;" parent="SdNBDiDPCRayU0WkWFOt-214" vertex="1">
          <mxGeometry y="30" width="180" height="30" as="geometry" />
        </mxCell>
        <mxCell id="SdNBDiDPCRayU0WkWFOt-225" value="+" style="shape=partialRectangle;connectable=0;fillColor=none;top=0;left=0;bottom=0;right=0;editable=1;overflow=hidden;" parent="SdNBDiDPCRayU0WkWFOt-224" vertex="1">
          <mxGeometry width="30" height="30" as="geometry">
            <mxRectangle width="30" height="30" as="alternateBounds" />
          </mxGeometry>
        </mxCell>
        <mxCell id="SdNBDiDPCRayU0WkWFOt-226" value="Funkce" style="shape=partialRectangle;connectable=0;fillColor=none;top=0;left=0;bottom=0;right=0;align=left;spacingLeft=6;overflow=hidden;" parent="SdNBDiDPCRayU0WkWFOt-224" vertex="1">
          <mxGeometry x="30" width="150" height="30" as="geometry">
            <mxRectangle width="150" height="30" as="alternateBounds" />
          </mxGeometry>
        </mxCell>
        <mxCell id="SdNBDiDPCRayU0WkWFOt-237" value="" style="group" parent="1" vertex="1" connectable="0">
          <mxGeometry x="-530" y="85" width="60" height="15" as="geometry" />
        </mxCell>
        <mxCell id="SdNBDiDPCRayU0WkWFOt-227" value="" style="endArrow=none;html=1;rounded=0;exitX=1;exitY=0.5;exitDx=0;exitDy=0;entryX=0;entryY=0.5;entryDx=0;entryDy=0;" parent="SdNBDiDPCRayU0WkWFOt-237" source="SdNBDiDPCRayU0WkWFOt-102" target="SdNBDiDPCRayU0WkWFOt-118" edge="1">
          <mxGeometry relative="1" as="geometry">
            <mxPoint x="-35" y="55" as="sourcePoint" />
            <mxPoint x="125" y="55" as="targetPoint" />
          </mxGeometry>
        </mxCell>
        <mxCell id="SdNBDiDPCRayU0WkWFOt-228" value="1" style="resizable=0;html=1;align=left;verticalAlign=bottom;" parent="SdNBDiDPCRayU0WkWFOt-227" connectable="0" vertex="1">
          <mxGeometry x="-1" relative="1" as="geometry" />
        </mxCell>
        <mxCell id="SdNBDiDPCRayU0WkWFOt-229" value="0..N" style="resizable=0;html=1;align=right;verticalAlign=bottom;" parent="SdNBDiDPCRayU0WkWFOt-227" connectable="0" vertex="1">
          <mxGeometry x="1" relative="1" as="geometry" />
        </mxCell>
        <mxCell id="SdNBDiDPCRayU0WkWFOt-230" value="Ridi &amp;gt;" style="text;html=1;strokeColor=none;fillColor=none;align=center;verticalAlign=middle;whiteSpace=wrap;rounded=0;" parent="SdNBDiDPCRayU0WkWFOt-237" vertex="1">
          <mxGeometry width="60" height="15" as="geometry" />
        </mxCell>
        <mxCell id="SdNBDiDPCRayU0WkWFOt-242" value="" style="group" parent="1" vertex="1" connectable="0">
          <mxGeometry x="-530" y="115" width="60" height="15" as="geometry" />
        </mxCell>
        <mxCell id="SdNBDiDPCRayU0WkWFOt-243" value="" style="group" parent="SdNBDiDPCRayU0WkWFOt-242" vertex="1" connectable="0">
          <mxGeometry x="-40" width="100" height="15" as="geometry" />
        </mxCell>
        <mxCell id="SdNBDiDPCRayU0WkWFOt-238" value="" style="endArrow=none;html=1;rounded=0;exitX=1.002;exitY=0.981;exitDx=0;exitDy=0;entryX=-0.004;entryY=1.018;entryDx=0;entryDy=0;exitPerimeter=0;entryPerimeter=0;" parent="SdNBDiDPCRayU0WkWFOt-243" source="SdNBDiDPCRayU0WkWFOt-105" target="SdNBDiDPCRayU0WkWFOt-121" edge="1">
          <mxGeometry relative="1" as="geometry">
            <mxPoint x="15" y="15" as="sourcePoint" />
            <mxPoint x="175" y="15" as="targetPoint" />
            <Array as="points" />
          </mxGeometry>
        </mxCell>
        <mxCell id="SdNBDiDPCRayU0WkWFOt-239" value="1..N" style="resizable=0;html=1;align=left;verticalAlign=bottom;" parent="SdNBDiDPCRayU0WkWFOt-238" connectable="0" vertex="1">
          <mxGeometry x="-1" relative="1" as="geometry" />
        </mxCell>
        <mxCell id="SdNBDiDPCRayU0WkWFOt-240" value="0..N" style="resizable=0;html=1;align=right;verticalAlign=bottom;" parent="SdNBDiDPCRayU0WkWFOt-238" connectable="0" vertex="1">
          <mxGeometry x="1" relative="1" as="geometry" />
        </mxCell>
        <mxCell id="SdNBDiDPCRayU0WkWFOt-241" value="Pracuje &amp;gt;" style="text;html=1;strokeColor=none;fillColor=none;align=center;verticalAlign=middle;whiteSpace=wrap;rounded=0;" parent="1" vertex="1">
          <mxGeometry x="-530" y="130" width="60" height="15" as="geometry" />
        </mxCell>
        <mxCell id="SdNBDiDPCRayU0WkWFOt-244" value="" style="endArrow=none;html=1;rounded=0;entryX=0.5;entryY=1;entryDx=0;entryDy=0;exitX=0.5;exitY=0;exitDx=0;exitDy=0;" parent="1" source="SdNBDiDPCRayU0WkWFOt-214" target="SdNBDiDPCRayU0WkWFOt-101" edge="1">
          <mxGeometry width="50" height="50" relative="1" as="geometry">
            <mxPoint x="-655" y="230" as="sourcePoint" />
            <mxPoint x="-605" y="180" as="targetPoint" />
          </mxGeometry>
        </mxCell>
        <mxCell id="SdNBDiDPCRayU0WkWFOt-245" value="" style="triangle;whiteSpace=wrap;html=1;direction=north;" parent="1" vertex="1">
          <mxGeometry x="-700" y="245" width="10" height="10" as="geometry" />
        </mxCell>
        <mxCell id="SdNBDiDPCRayU0WkWFOt-246" value="" style="endArrow=none;html=1;rounded=0;exitX=0.5;exitY=1;exitDx=0;exitDy=0;entryX=0.5;entryY=0;entryDx=0;entryDy=0;" parent="1" source="SdNBDiDPCRayU0WkWFOt-214" target="SdNBDiDPCRayU0WkWFOt-180" edge="1">
          <mxGeometry relative="1" as="geometry">
            <mxPoint x="-710" y="370" as="sourcePoint" />
            <mxPoint x="-550" y="370" as="targetPoint" />
          </mxGeometry>
        </mxCell>
        <mxCell id="SdNBDiDPCRayU0WkWFOt-247" value="1..N" style="resizable=0;html=1;align=left;verticalAlign=bottom;" parent="SdNBDiDPCRayU0WkWFOt-246" connectable="0" vertex="1">
          <mxGeometry x="-1" relative="1" as="geometry">
            <mxPoint y="20" as="offset" />
          </mxGeometry>
        </mxCell>
        <mxCell id="SdNBDiDPCRayU0WkWFOt-248" value="1..N" style="resizable=0;html=1;align=right;verticalAlign=bottom;" parent="SdNBDiDPCRayU0WkWFOt-246" connectable="0" vertex="1">
          <mxGeometry x="1" relative="1" as="geometry" />
        </mxCell>
        <mxCell id="SdNBDiDPCRayU0WkWFOt-250" value="" style="endArrow=none;html=1;rounded=0;dashed=1;dashPattern=1 2;entryX=0;entryY=0.5;entryDx=0;entryDy=0;" parent="1" target="SdNBDiDPCRayU0WkWFOt-256" edge="1">
          <mxGeometry relative="1" as="geometry">
            <mxPoint x="-695" y="425" as="sourcePoint" />
            <mxPoint x="-625" y="435" as="targetPoint" />
          </mxGeometry>
        </mxCell>
        <mxCell id="SdNBDiDPCRayU0WkWFOt-251" value="" style="resizable=0;html=1;align=right;verticalAlign=bottom;" parent="SdNBDiDPCRayU0WkWFOt-250" connectable="0" vertex="1">
          <mxGeometry x="1" relative="1" as="geometry" />
        </mxCell>
        <mxCell id="SdNBDiDPCRayU0WkWFOt-252" value="Zaseda" style="shape=table;startSize=30;container=1;collapsible=1;childLayout=tableLayout;fixedRows=1;rowLines=0;fontStyle=1;align=center;resizeLast=1;" parent="1" vertex="1">
          <mxGeometry x="-615" y="380" width="105" height="100" as="geometry" />
        </mxCell>
        <mxCell id="SdNBDiDPCRayU0WkWFOt-256" value="" style="shape=tableRow;horizontal=0;startSize=0;swimlaneHead=0;swimlaneBody=0;fillColor=none;collapsible=0;dropTarget=0;points=[[0,0.5],[1,0.5]];portConstraint=eastwest;top=0;left=0;right=0;bottom=0;" parent="SdNBDiDPCRayU0WkWFOt-252" vertex="1">
          <mxGeometry y="30" width="105" height="30" as="geometry" />
        </mxCell>
        <mxCell id="SdNBDiDPCRayU0WkWFOt-257" value="+" style="shape=partialRectangle;connectable=0;fillColor=none;top=0;left=0;bottom=0;right=0;editable=1;overflow=hidden;" parent="SdNBDiDPCRayU0WkWFOt-256" vertex="1">
          <mxGeometry width="30" height="30" as="geometry">
            <mxRectangle width="30" height="30" as="alternateBounds" />
          </mxGeometry>
        </mxCell>
        <mxCell id="SdNBDiDPCRayU0WkWFOt-258" value="od" style="shape=partialRectangle;connectable=0;fillColor=none;top=0;left=0;bottom=0;right=0;align=left;spacingLeft=6;overflow=hidden;" parent="SdNBDiDPCRayU0WkWFOt-256" vertex="1">
          <mxGeometry x="30" width="75" height="30" as="geometry">
            <mxRectangle width="75" height="30" as="alternateBounds" />
          </mxGeometry>
        </mxCell>
        <mxCell id="SdNBDiDPCRayU0WkWFOt-259" value="" style="shape=tableRow;horizontal=0;startSize=0;swimlaneHead=0;swimlaneBody=0;fillColor=none;collapsible=0;dropTarget=0;points=[[0,0.5],[1,0.5]];portConstraint=eastwest;top=0;left=0;right=0;bottom=0;" parent="SdNBDiDPCRayU0WkWFOt-252" vertex="1">
          <mxGeometry y="60" width="105" height="30" as="geometry" />
        </mxCell>
        <mxCell id="SdNBDiDPCRayU0WkWFOt-260" value="+" style="shape=partialRectangle;connectable=0;fillColor=none;top=0;left=0;bottom=0;right=0;editable=1;overflow=hidden;" parent="SdNBDiDPCRayU0WkWFOt-259" vertex="1">
          <mxGeometry width="30" height="30" as="geometry">
            <mxRectangle width="30" height="30" as="alternateBounds" />
          </mxGeometry>
        </mxCell>
        <mxCell id="SdNBDiDPCRayU0WkWFOt-261" value="do" style="shape=partialRectangle;connectable=0;fillColor=none;top=0;left=0;bottom=0;right=0;align=left;spacingLeft=6;overflow=hidden;" parent="SdNBDiDPCRayU0WkWFOt-259" vertex="1">
          <mxGeometry x="30" width="75" height="30" as="geometry">
            <mxRectangle width="75" height="30" as="alternateBounds" />
          </mxGeometry>
        </mxCell>
        <mxCell id="SdNBDiDPCRayU0WkWFOt-265" value="&gt;" style="text;strokeColor=none;fillColor=none;spacingLeft=4;spacingRight=4;overflow=hidden;rotatable=0;points=[[0,0.5],[1,0.5]];portConstraint=eastwest;fontSize=12;" parent="1" vertex="1">
          <mxGeometry x="-695" y="400" width="20" height="20" as="geometry" />
        </mxCell>
        <mxCell id="SdNBDiDPCRayU0WkWFOt-266" value="Statni instituce" style="shape=table;startSize=30;container=1;collapsible=1;childLayout=tableLayout;fixedRows=1;rowLines=0;fontStyle=1;align=center;resizeLast=1;" parent="1" vertex="1">
          <mxGeometry x="-385" y="315" width="180" height="70" as="geometry" />
        </mxCell>
        <mxCell id="SdNBDiDPCRayU0WkWFOt-270" value="" style="shape=tableRow;horizontal=0;startSize=0;swimlaneHead=0;swimlaneBody=0;fillColor=none;collapsible=0;dropTarget=0;points=[[0,0.5],[1,0.5]];portConstraint=eastwest;top=0;left=0;right=0;bottom=0;" parent="SdNBDiDPCRayU0WkWFOt-266" vertex="1">
          <mxGeometry y="30" width="180" height="30" as="geometry" />
        </mxCell>
        <mxCell id="SdNBDiDPCRayU0WkWFOt-271" value="+" style="shape=partialRectangle;connectable=0;fillColor=none;top=0;left=0;bottom=0;right=0;editable=1;overflow=hidden;" parent="SdNBDiDPCRayU0WkWFOt-270" vertex="1">
          <mxGeometry width="30" height="30" as="geometry">
            <mxRectangle width="30" height="30" as="alternateBounds" />
          </mxGeometry>
        </mxCell>
        <mxCell id="SdNBDiDPCRayU0WkWFOt-272" value="Zkratka" style="shape=partialRectangle;connectable=0;fillColor=none;top=0;left=0;bottom=0;right=0;align=left;spacingLeft=6;overflow=hidden;" parent="SdNBDiDPCRayU0WkWFOt-270" vertex="1">
          <mxGeometry x="30" width="150" height="30" as="geometry">
            <mxRectangle width="150" height="30" as="alternateBounds" />
          </mxGeometry>
        </mxCell>
        <mxCell id="SdNBDiDPCRayU0WkWFOt-287" value="" style="endArrow=none;html=1;rounded=0;exitX=0;exitY=0.5;exitDx=0;exitDy=0;entryX=0.5;entryY=0;entryDx=0;entryDy=0;startArrow=none;" parent="1" source="SdNBDiDPCRayU0WkWFOt-314" target="SdNBDiDPCRayU0WkWFOt-266" edge="1">
          <mxGeometry relative="1" as="geometry">
            <mxPoint x="-295" y="275" as="sourcePoint" />
            <mxPoint x="-295" y="305" as="targetPoint" />
          </mxGeometry>
        </mxCell>
        <mxCell id="SdNBDiDPCRayU0WkWFOt-301" value="Statni organizace" style="shape=table;startSize=30;container=1;collapsible=1;childLayout=tableLayout;fixedRows=1;rowLines=0;fontStyle=1;align=center;resizeLast=1;" parent="1" vertex="1">
          <mxGeometry x="-265" y="425" width="180" height="70" as="geometry" />
        </mxCell>
        <mxCell id="SdNBDiDPCRayU0WkWFOt-311" value="" style="shape=tableRow;horizontal=0;startSize=0;swimlaneHead=0;swimlaneBody=0;fillColor=none;collapsible=0;dropTarget=0;points=[[0,0.5],[1,0.5]];portConstraint=eastwest;top=0;left=0;right=0;bottom=0;" parent="SdNBDiDPCRayU0WkWFOt-301" vertex="1">
          <mxGeometry y="30" width="180" height="30" as="geometry" />
        </mxCell>
        <mxCell id="SdNBDiDPCRayU0WkWFOt-312" value="+" style="shape=partialRectangle;connectable=0;fillColor=none;top=0;left=0;bottom=0;right=0;editable=1;overflow=hidden;" parent="SdNBDiDPCRayU0WkWFOt-311" vertex="1">
          <mxGeometry width="30" height="30" as="geometry">
            <mxRectangle width="30" height="30" as="alternateBounds" />
          </mxGeometry>
        </mxCell>
        <mxCell id="SdNBDiDPCRayU0WkWFOt-313" value="Druh" style="shape=partialRectangle;connectable=0;fillColor=none;top=0;left=0;bottom=0;right=0;align=left;spacingLeft=6;overflow=hidden;" parent="SdNBDiDPCRayU0WkWFOt-311" vertex="1">
          <mxGeometry x="30" width="150" height="30" as="geometry">
            <mxRectangle width="150" height="30" as="alternateBounds" />
          </mxGeometry>
        </mxCell>
        <mxCell id="SdNBDiDPCRayU0WkWFOt-314" value="" style="triangle;whiteSpace=wrap;html=1;direction=north;" parent="1" vertex="1">
          <mxGeometry x="-300" y="275" width="10" height="10" as="geometry" />
        </mxCell>
        <mxCell id="SdNBDiDPCRayU0WkWFOt-318" value="" style="endArrow=none;html=1;rounded=0;exitX=0.5;exitY=1;exitDx=0;exitDy=0;entryX=0.5;entryY=0;entryDx=0;entryDy=0;" parent="1" source="SdNBDiDPCRayU0WkWFOt-117" target="SdNBDiDPCRayU0WkWFOt-314" edge="1">
          <mxGeometry relative="1" as="geometry">
            <mxPoint x="-295" y="275" as="sourcePoint" />
            <mxPoint x="-295" y="315" as="targetPoint" />
          </mxGeometry>
        </mxCell>
        <mxCell id="SdNBDiDPCRayU0WkWFOt-323" value="Organizacni slouzka statu*" style="swimlane;fontStyle=1;childLayout=stackLayout;horizontal=1;startSize=30;horizontalStack=0;resizeParent=1;resizeParentMax=0;resizeLast=0;collapsible=1;marginBottom=0;" parent="1" vertex="1">
          <mxGeometry x="-460" y="425" width="180" height="30" as="geometry">
            <mxRectangle x="-540" y="365" width="55" height="30" as="alternateBounds" />
          </mxGeometry>
        </mxCell>
        <mxCell id="SdNBDiDPCRayU0WkWFOt-335" value="" style="triangle;whiteSpace=wrap;html=1;direction=north;" parent="1" vertex="1">
          <mxGeometry x="-350" y="385" width="10" height="10" as="geometry" />
        </mxCell>
        <mxCell id="SdNBDiDPCRayU0WkWFOt-336" value="" style="triangle;whiteSpace=wrap;html=1;direction=north;" parent="1" vertex="1">
          <mxGeometry x="-250" y="385" width="10" height="10" as="geometry" />
        </mxCell>
        <mxCell id="SdNBDiDPCRayU0WkWFOt-337" value="" style="endArrow=none;html=1;rounded=0;entryX=0;entryY=0.5;entryDx=0;entryDy=0;" parent="1" target="SdNBDiDPCRayU0WkWFOt-335" edge="1">
          <mxGeometry width="50" height="50" relative="1" as="geometry">
            <mxPoint x="-345" y="425" as="sourcePoint" />
            <mxPoint x="-425" y="480" as="targetPoint" />
          </mxGeometry>
        </mxCell>
        <mxCell id="SdNBDiDPCRayU0WkWFOt-338" value="" style="endArrow=none;html=1;rounded=0;entryX=0;entryY=0.5;entryDx=0;entryDy=0;exitX=0.111;exitY=-0.007;exitDx=0;exitDy=0;exitPerimeter=0;" parent="1" source="SdNBDiDPCRayU0WkWFOt-301" target="SdNBDiDPCRayU0WkWFOt-336" edge="1">
          <mxGeometry width="50" height="50" relative="1" as="geometry">
            <mxPoint x="-420" y="485" as="sourcePoint" />
            <mxPoint x="-370" y="435" as="targetPoint" />
          </mxGeometry>
        </mxCell>
        <mxCell id="SdNBDiDPCRayU0WkWFOt-339" value="Kategorie OVM" style="shape=table;startSize=30;container=1;collapsible=1;childLayout=tableLayout;fixedRows=1;rowLines=0;fontStyle=1;align=center;resizeLast=1;" parent="1" vertex="1">
          <mxGeometry x="-460" y="575" width="180" height="100" as="geometry" />
        </mxCell>
        <mxCell id="SdNBDiDPCRayU0WkWFOt-340" value="" style="shape=tableRow;horizontal=0;startSize=0;swimlaneHead=0;swimlaneBody=0;fillColor=none;collapsible=0;dropTarget=0;points=[[0,0.5],[1,0.5]];portConstraint=eastwest;top=0;left=0;right=0;bottom=1;" parent="SdNBDiDPCRayU0WkWFOt-339" vertex="1">
          <mxGeometry y="30" width="180" height="30" as="geometry" />
        </mxCell>
        <mxCell id="SdNBDiDPCRayU0WkWFOt-341" value="PK" style="shape=partialRectangle;connectable=0;fillColor=none;top=0;left=0;bottom=0;right=0;fontStyle=1;overflow=hidden;" parent="SdNBDiDPCRayU0WkWFOt-340" vertex="1">
          <mxGeometry width="30" height="30" as="geometry">
            <mxRectangle width="30" height="30" as="alternateBounds" />
          </mxGeometry>
        </mxCell>
        <mxCell id="SdNBDiDPCRayU0WkWFOt-342" value="Kod" style="shape=partialRectangle;connectable=0;fillColor=none;top=0;left=0;bottom=0;right=0;align=left;spacingLeft=6;fontStyle=5;overflow=hidden;" parent="SdNBDiDPCRayU0WkWFOt-340" vertex="1">
          <mxGeometry x="30" width="150" height="30" as="geometry">
            <mxRectangle width="150" height="30" as="alternateBounds" />
          </mxGeometry>
        </mxCell>
        <mxCell id="SdNBDiDPCRayU0WkWFOt-343" value="" style="shape=tableRow;horizontal=0;startSize=0;swimlaneHead=0;swimlaneBody=0;fillColor=none;collapsible=0;dropTarget=0;points=[[0,0.5],[1,0.5]];portConstraint=eastwest;top=0;left=0;right=0;bottom=0;" parent="SdNBDiDPCRayU0WkWFOt-339" vertex="1">
          <mxGeometry y="60" width="180" height="30" as="geometry" />
        </mxCell>
        <mxCell id="SdNBDiDPCRayU0WkWFOt-344" value="+" style="shape=partialRectangle;connectable=0;fillColor=none;top=0;left=0;bottom=0;right=0;editable=1;overflow=hidden;" parent="SdNBDiDPCRayU0WkWFOt-343" vertex="1">
          <mxGeometry width="30" height="30" as="geometry">
            <mxRectangle width="30" height="30" as="alternateBounds" />
          </mxGeometry>
        </mxCell>
        <mxCell id="SdNBDiDPCRayU0WkWFOt-345" value="Nazev" style="shape=partialRectangle;connectable=0;fillColor=none;top=0;left=0;bottom=0;right=0;align=left;spacingLeft=6;overflow=hidden;" parent="SdNBDiDPCRayU0WkWFOt-343" vertex="1">
          <mxGeometry x="30" width="150" height="30" as="geometry">
            <mxRectangle width="150" height="30" as="alternateBounds" />
          </mxGeometry>
        </mxCell>
        <mxCell id="SdNBDiDPCRayU0WkWFOt-355" value="" style="endArrow=none;html=1;rounded=0;exitX=0.5;exitY=1;exitDx=0;exitDy=0;entryX=0.5;entryY=0;entryDx=0;entryDy=0;" parent="1" source="SdNBDiDPCRayU0WkWFOt-323" target="SdNBDiDPCRayU0WkWFOt-339" edge="1">
          <mxGeometry relative="1" as="geometry">
            <mxPoint x="-460" y="450" as="sourcePoint" />
            <mxPoint x="-300" y="450" as="targetPoint" />
          </mxGeometry>
        </mxCell>
        <mxCell id="SdNBDiDPCRayU0WkWFOt-356" value="1..N" style="resizable=0;html=1;align=left;verticalAlign=bottom;" parent="SdNBDiDPCRayU0WkWFOt-355" connectable="0" vertex="1">
          <mxGeometry x="-1" relative="1" as="geometry">
            <mxPoint y="20" as="offset" />
          </mxGeometry>
        </mxCell>
        <mxCell id="SdNBDiDPCRayU0WkWFOt-357" value="1..N" style="resizable=0;html=1;align=right;verticalAlign=bottom;" parent="SdNBDiDPCRayU0WkWFOt-355" connectable="0" vertex="1">
          <mxGeometry x="1" relative="1" as="geometry" />
        </mxCell>
        <mxCell id="SdNBDiDPCRayU0WkWFOt-358" value="▼ Spadaji do " style="text;strokeColor=none;fillColor=none;spacingLeft=4;spacingRight=4;overflow=hidden;rotatable=0;points=[[0,0.5],[1,0.5]];portConstraint=eastwest;fontSize=12;" parent="1" vertex="1">
          <mxGeometry x="-375" y="505" width="85" height="30" as="geometry" />
        </mxCell>
        <mxCell id="SdNBDiDPCRayU0WkWFOt-359" value="&lt;&lt;week&gt;&gt;&#xa;Zakazka" style="shape=table;startSize=30;container=1;collapsible=1;childLayout=tableLayout;fixedRows=1;rowLines=0;fontStyle=1;align=center;resizeLast=1;" parent="1" vertex="1">
          <mxGeometry x="-5" y="345" width="180" height="340" as="geometry" />
        </mxCell>
        <mxCell id="SdNBDiDPCRayU0WkWFOt-360" value="" style="shape=tableRow;horizontal=0;startSize=0;swimlaneHead=0;swimlaneBody=0;fillColor=none;collapsible=0;dropTarget=0;points=[[0,0.5],[1,0.5]];portConstraint=eastwest;top=0;left=0;right=0;bottom=1;" parent="SdNBDiDPCRayU0WkWFOt-359" vertex="1">
          <mxGeometry y="30" width="180" height="30" as="geometry" />
        </mxCell>
        <mxCell id="SdNBDiDPCRayU0WkWFOt-361" value="D" style="shape=partialRectangle;connectable=0;fillColor=none;top=0;left=0;bottom=0;right=0;fontStyle=1;overflow=hidden;" parent="SdNBDiDPCRayU0WkWFOt-360" vertex="1">
          <mxGeometry width="30" height="30" as="geometry">
            <mxRectangle width="30" height="30" as="alternateBounds" />
          </mxGeometry>
        </mxCell>
        <mxCell id="SdNBDiDPCRayU0WkWFOt-362" value="Evidencni cislo" style="shape=partialRectangle;connectable=0;fillColor=none;top=0;left=0;bottom=0;right=0;align=left;spacingLeft=6;fontStyle=5;overflow=hidden;" parent="SdNBDiDPCRayU0WkWFOt-360" vertex="1">
          <mxGeometry x="30" width="150" height="30" as="geometry">
            <mxRectangle width="150" height="30" as="alternateBounds" />
          </mxGeometry>
        </mxCell>
        <mxCell id="SdNBDiDPCRayU0WkWFOt-363" value="" style="shape=tableRow;horizontal=0;startSize=0;swimlaneHead=0;swimlaneBody=0;fillColor=none;collapsible=0;dropTarget=0;points=[[0,0.5],[1,0.5]];portConstraint=eastwest;top=0;left=0;right=0;bottom=0;" parent="SdNBDiDPCRayU0WkWFOt-359" vertex="1">
          <mxGeometry y="60" width="180" height="30" as="geometry" />
        </mxCell>
        <mxCell id="SdNBDiDPCRayU0WkWFOt-364" value="+" style="shape=partialRectangle;connectable=0;fillColor=none;top=0;left=0;bottom=0;right=0;editable=1;overflow=hidden;" parent="SdNBDiDPCRayU0WkWFOt-363" vertex="1">
          <mxGeometry width="30" height="30" as="geometry">
            <mxRectangle width="30" height="30" as="alternateBounds" />
          </mxGeometry>
        </mxCell>
        <mxCell id="SdNBDiDPCRayU0WkWFOt-365" value="Nazev" style="shape=partialRectangle;connectable=0;fillColor=none;top=0;left=0;bottom=0;right=0;align=left;spacingLeft=6;overflow=hidden;" parent="SdNBDiDPCRayU0WkWFOt-363" vertex="1">
          <mxGeometry x="30" width="150" height="30" as="geometry">
            <mxRectangle width="150" height="30" as="alternateBounds" />
          </mxGeometry>
        </mxCell>
        <mxCell id="SdNBDiDPCRayU0WkWFOt-366" value="" style="shape=tableRow;horizontal=0;startSize=0;swimlaneHead=0;swimlaneBody=0;fillColor=none;collapsible=0;dropTarget=0;points=[[0,0.5],[1,0.5]];portConstraint=eastwest;top=0;left=0;right=0;bottom=0;" parent="SdNBDiDPCRayU0WkWFOt-359" vertex="1">
          <mxGeometry y="90" width="180" height="30" as="geometry" />
        </mxCell>
        <mxCell id="SdNBDiDPCRayU0WkWFOt-367" value="+" style="shape=partialRectangle;connectable=0;fillColor=none;top=0;left=0;bottom=0;right=0;editable=1;overflow=hidden;" parent="SdNBDiDPCRayU0WkWFOt-366" vertex="1">
          <mxGeometry width="30" height="30" as="geometry">
            <mxRectangle width="30" height="30" as="alternateBounds" />
          </mxGeometry>
        </mxCell>
        <mxCell id="SdNBDiDPCRayU0WkWFOt-368" value="Popis" style="shape=partialRectangle;connectable=0;fillColor=none;top=0;left=0;bottom=0;right=0;align=left;spacingLeft=6;overflow=hidden;" parent="SdNBDiDPCRayU0WkWFOt-366" vertex="1">
          <mxGeometry x="30" width="150" height="30" as="geometry">
            <mxRectangle width="150" height="30" as="alternateBounds" />
          </mxGeometry>
        </mxCell>
        <mxCell id="SdNBDiDPCRayU0WkWFOt-369" value="" style="shape=tableRow;horizontal=0;startSize=0;swimlaneHead=0;swimlaneBody=0;fillColor=none;collapsible=0;dropTarget=0;points=[[0,0.5],[1,0.5]];portConstraint=eastwest;top=0;left=0;right=0;bottom=0;" parent="SdNBDiDPCRayU0WkWFOt-359" vertex="1">
          <mxGeometry y="120" width="180" height="30" as="geometry" />
        </mxCell>
        <mxCell id="SdNBDiDPCRayU0WkWFOt-370" value="+" style="shape=partialRectangle;connectable=0;fillColor=none;top=0;left=0;bottom=0;right=0;editable=1;overflow=hidden;" parent="SdNBDiDPCRayU0WkWFOt-369" vertex="1">
          <mxGeometry width="30" height="30" as="geometry">
            <mxRectangle width="30" height="30" as="alternateBounds" />
          </mxGeometry>
        </mxCell>
        <mxCell id="SdNBDiDPCRayU0WkWFOt-371" value="Predpokladna cena" style="shape=partialRectangle;connectable=0;fillColor=none;top=0;left=0;bottom=0;right=0;align=left;spacingLeft=6;overflow=hidden;" parent="SdNBDiDPCRayU0WkWFOt-369" vertex="1">
          <mxGeometry x="30" width="150" height="30" as="geometry">
            <mxRectangle width="150" height="30" as="alternateBounds" />
          </mxGeometry>
        </mxCell>
        <mxCell id="SdNBDiDPCRayU0WkWFOt-372" style="shape=tableRow;horizontal=0;startSize=0;swimlaneHead=0;swimlaneBody=0;fillColor=none;collapsible=0;dropTarget=0;points=[[0,0.5],[1,0.5]];portConstraint=eastwest;top=0;left=0;right=0;bottom=0;" parent="SdNBDiDPCRayU0WkWFOt-359" vertex="1">
          <mxGeometry y="150" width="180" height="30" as="geometry" />
        </mxCell>
        <mxCell id="SdNBDiDPCRayU0WkWFOt-373" value="+" style="shape=partialRectangle;connectable=0;fillColor=none;top=0;left=0;bottom=0;right=0;editable=1;overflow=hidden;" parent="SdNBDiDPCRayU0WkWFOt-372" vertex="1">
          <mxGeometry width="30" height="30" as="geometry">
            <mxRectangle width="30" height="30" as="alternateBounds" />
          </mxGeometry>
        </mxCell>
        <mxCell id="SdNBDiDPCRayU0WkWFOt-374" value="Typ" style="shape=partialRectangle;connectable=0;fillColor=none;top=0;left=0;bottom=0;right=0;align=left;spacingLeft=6;overflow=hidden;" parent="SdNBDiDPCRayU0WkWFOt-372" vertex="1">
          <mxGeometry x="30" width="150" height="30" as="geometry">
            <mxRectangle width="150" height="30" as="alternateBounds" />
          </mxGeometry>
        </mxCell>
        <mxCell id="SdNBDiDPCRayU0WkWFOt-375" style="shape=tableRow;horizontal=0;startSize=0;swimlaneHead=0;swimlaneBody=0;fillColor=none;collapsible=0;dropTarget=0;points=[[0,0.5],[1,0.5]];portConstraint=eastwest;top=0;left=0;right=0;bottom=0;" parent="SdNBDiDPCRayU0WkWFOt-359" vertex="1">
          <mxGeometry y="180" width="180" height="30" as="geometry" />
        </mxCell>
        <mxCell id="SdNBDiDPCRayU0WkWFOt-376" value="+" style="shape=partialRectangle;connectable=0;fillColor=none;top=0;left=0;bottom=0;right=0;editable=1;overflow=hidden;" parent="SdNBDiDPCRayU0WkWFOt-375" vertex="1">
          <mxGeometry width="30" height="30" as="geometry">
            <mxRectangle width="30" height="30" as="alternateBounds" />
          </mxGeometry>
        </mxCell>
        <mxCell id="SdNBDiDPCRayU0WkWFOt-377" value="Druh rizeni" style="shape=partialRectangle;connectable=0;fillColor=none;top=0;left=0;bottom=0;right=0;align=left;spacingLeft=6;overflow=hidden;" parent="SdNBDiDPCRayU0WkWFOt-375" vertex="1">
          <mxGeometry x="30" width="150" height="30" as="geometry">
            <mxRectangle width="150" height="30" as="alternateBounds" />
          </mxGeometry>
        </mxCell>
        <mxCell id="SdNBDiDPCRayU0WkWFOt-378" style="shape=tableRow;horizontal=0;startSize=0;swimlaneHead=0;swimlaneBody=0;fillColor=none;collapsible=0;dropTarget=0;points=[[0,0.5],[1,0.5]];portConstraint=eastwest;top=0;left=0;right=0;bottom=0;" parent="SdNBDiDPCRayU0WkWFOt-359" vertex="1">
          <mxGeometry y="210" width="180" height="30" as="geometry" />
        </mxCell>
        <mxCell id="SdNBDiDPCRayU0WkWFOt-379" value="+" style="shape=partialRectangle;connectable=0;fillColor=none;top=0;left=0;bottom=0;right=0;editable=1;overflow=hidden;" parent="SdNBDiDPCRayU0WkWFOt-378" vertex="1">
          <mxGeometry width="30" height="30" as="geometry">
            <mxRectangle width="30" height="30" as="alternateBounds" />
          </mxGeometry>
        </mxCell>
        <mxCell id="SdNBDiDPCRayU0WkWFOt-380" value="Datum vypsani" style="shape=partialRectangle;connectable=0;fillColor=none;top=0;left=0;bottom=0;right=0;align=left;spacingLeft=6;overflow=hidden;" parent="SdNBDiDPCRayU0WkWFOt-378" vertex="1">
          <mxGeometry x="30" width="150" height="30" as="geometry">
            <mxRectangle width="150" height="30" as="alternateBounds" />
          </mxGeometry>
        </mxCell>
        <mxCell id="SdNBDiDPCRayU0WkWFOt-381" style="shape=tableRow;horizontal=0;startSize=0;swimlaneHead=0;swimlaneBody=0;fillColor=none;collapsible=0;dropTarget=0;points=[[0,0.5],[1,0.5]];portConstraint=eastwest;top=0;left=0;right=0;bottom=0;" parent="SdNBDiDPCRayU0WkWFOt-359" vertex="1">
          <mxGeometry y="240" width="180" height="30" as="geometry" />
        </mxCell>
        <mxCell id="SdNBDiDPCRayU0WkWFOt-382" value="+" style="shape=partialRectangle;connectable=0;fillColor=none;top=0;left=0;bottom=0;right=0;editable=1;overflow=hidden;" parent="SdNBDiDPCRayU0WkWFOt-381" vertex="1">
          <mxGeometry width="30" height="30" as="geometry">
            <mxRectangle width="30" height="30" as="alternateBounds" />
          </mxGeometry>
        </mxCell>
        <mxCell id="SdNBDiDPCRayU0WkWFOt-383" value="Datum konce hluty" style="shape=partialRectangle;connectable=0;fillColor=none;top=0;left=0;bottom=0;right=0;align=left;spacingLeft=6;overflow=hidden;" parent="SdNBDiDPCRayU0WkWFOt-381" vertex="1">
          <mxGeometry x="30" width="150" height="30" as="geometry">
            <mxRectangle width="150" height="30" as="alternateBounds" />
          </mxGeometry>
        </mxCell>
        <mxCell id="SdNBDiDPCRayU0WkWFOt-384" style="shape=tableRow;horizontal=0;startSize=0;swimlaneHead=0;swimlaneBody=0;fillColor=none;collapsible=0;dropTarget=0;points=[[0,0.5],[1,0.5]];portConstraint=eastwest;top=0;left=0;right=0;bottom=0;" parent="SdNBDiDPCRayU0WkWFOt-359" vertex="1">
          <mxGeometry y="270" width="180" height="30" as="geometry" />
        </mxCell>
        <mxCell id="SdNBDiDPCRayU0WkWFOt-385" value="+" style="shape=partialRectangle;connectable=0;fillColor=none;top=0;left=0;bottom=0;right=0;editable=1;overflow=hidden;" parent="SdNBDiDPCRayU0WkWFOt-384" vertex="1">
          <mxGeometry width="30" height="30" as="geometry">
            <mxRectangle width="30" height="30" as="alternateBounds" />
          </mxGeometry>
        </mxCell>
        <mxCell id="SdNBDiDPCRayU0WkWFOt-386" value="Cas konce lhuty" style="shape=partialRectangle;connectable=0;fillColor=none;top=0;left=0;bottom=0;right=0;align=left;spacingLeft=6;overflow=hidden;" parent="SdNBDiDPCRayU0WkWFOt-384" vertex="1">
          <mxGeometry x="30" width="150" height="30" as="geometry">
            <mxRectangle width="150" height="30" as="alternateBounds" />
          </mxGeometry>
        </mxCell>
        <mxCell id="SdNBDiDPCRayU0WkWFOt-393" style="shape=tableRow;horizontal=0;startSize=0;swimlaneHead=0;swimlaneBody=0;fillColor=none;collapsible=0;dropTarget=0;points=[[0,0.5],[1,0.5]];portConstraint=eastwest;top=0;left=0;right=0;bottom=0;" parent="SdNBDiDPCRayU0WkWFOt-359" vertex="1">
          <mxGeometry y="300" width="180" height="30" as="geometry" />
        </mxCell>
        <mxCell id="SdNBDiDPCRayU0WkWFOt-394" value="+" style="shape=partialRectangle;connectable=0;fillColor=none;top=0;left=0;bottom=0;right=0;editable=1;overflow=hidden;" parent="SdNBDiDPCRayU0WkWFOt-393" vertex="1">
          <mxGeometry width="30" height="30" as="geometry">
            <mxRectangle width="30" height="30" as="alternateBounds" />
          </mxGeometry>
        </mxCell>
        <mxCell id="SdNBDiDPCRayU0WkWFOt-395" value="Datum rozhodnuti" style="shape=partialRectangle;connectable=0;fillColor=none;top=0;left=0;bottom=0;right=0;align=left;spacingLeft=6;overflow=hidden;" parent="SdNBDiDPCRayU0WkWFOt-393" vertex="1">
          <mxGeometry x="30" width="150" height="30" as="geometry">
            <mxRectangle width="150" height="30" as="alternateBounds" />
          </mxGeometry>
        </mxCell>
        <mxCell id="SdNBDiDPCRayU0WkWFOt-396" value="" style="endArrow=none;html=1;rounded=0;entryX=0;entryY=0.5;entryDx=0;entryDy=0;exitX=1;exitY=0.5;exitDx=0;exitDy=0;" parent="1" source="SdNBDiDPCRayU0WkWFOt-181" target="SdNBDiDPCRayU0WkWFOt-270" edge="1">
          <mxGeometry relative="1" as="geometry">
            <mxPoint x="-425" y="280" as="sourcePoint" />
            <mxPoint x="-265" y="280" as="targetPoint" />
            <Array as="points">
              <mxPoint x="-495" y="540" />
              <mxPoint x="-495" y="360" />
            </Array>
          </mxGeometry>
        </mxCell>
        <mxCell id="SdNBDiDPCRayU0WkWFOt-397" value="0..N" style="resizable=0;html=1;align=left;verticalAlign=bottom;" parent="SdNBDiDPCRayU0WkWFOt-396" connectable="0" vertex="1">
          <mxGeometry x="-1" relative="1" as="geometry" />
        </mxCell>
        <mxCell id="SdNBDiDPCRayU0WkWFOt-398" value="1" style="resizable=0;html=1;align=right;verticalAlign=bottom;" parent="SdNBDiDPCRayU0WkWFOt-396" connectable="0" vertex="1">
          <mxGeometry x="1" relative="1" as="geometry" />
        </mxCell>
        <mxCell id="SdNBDiDPCRayU0WkWFOt-399" value="&amp;lt; Jmenuje" style="text;html=1;align=center;verticalAlign=middle;resizable=0;points=[];autosize=1;strokeColor=none;fillColor=none;" parent="1" vertex="1">
          <mxGeometry x="-485" y="335" width="75" height="30" as="geometry" />
        </mxCell>
        <mxCell id="SdNBDiDPCRayU0WkWFOt-400" value="" style="endArrow=none;html=1;rounded=0;entryX=0;entryY=0.044;entryDx=0;entryDy=0;entryPerimeter=0;" parent="1" target="SdNBDiDPCRayU0WkWFOt-359" edge="1">
          <mxGeometry relative="1" as="geometry">
            <mxPoint x="-205" y="360" as="sourcePoint" />
            <mxPoint x="-45" y="360" as="targetPoint" />
            <Array as="points">
              <mxPoint x="-65" y="360" />
            </Array>
          </mxGeometry>
        </mxCell>
        <mxCell id="SdNBDiDPCRayU0WkWFOt-401" value="1" style="resizable=0;html=1;align=left;verticalAlign=bottom;" parent="SdNBDiDPCRayU0WkWFOt-400" connectable="0" vertex="1">
          <mxGeometry x="-1" relative="1" as="geometry" />
        </mxCell>
        <mxCell id="SdNBDiDPCRayU0WkWFOt-402" value="0..N" style="resizable=0;html=1;align=right;verticalAlign=bottom;" parent="SdNBDiDPCRayU0WkWFOt-400" connectable="0" vertex="1">
          <mxGeometry x="1" relative="1" as="geometry" />
        </mxCell>
        <mxCell id="SdNBDiDPCRayU0WkWFOt-403" value="vklada&amp;gt;" style="text;html=1;align=center;verticalAlign=middle;resizable=0;points=[];autosize=1;strokeColor=none;fillColor=none;" parent="1" vertex="1">
          <mxGeometry x="-170" y="335" width="65" height="30" as="geometry" />
        </mxCell>
        <mxCell id="SdNBDiDPCRayU0WkWFOt-407" value="" style="endArrow=none;html=1;rounded=0;entryX=0.5;entryY=1;entryDx=0;entryDy=0;" parent="1" target="SdNBDiDPCRayU0WkWFOt-359" edge="1">
          <mxGeometry relative="1" as="geometry">
            <mxPoint x="-625" y="655" as="sourcePoint" />
            <mxPoint x="-545" y="725" as="targetPoint" />
            <Array as="points">
              <mxPoint x="-625" y="725" />
              <mxPoint x="85" y="725" />
            </Array>
          </mxGeometry>
        </mxCell>
        <mxCell id="SdNBDiDPCRayU0WkWFOt-408" value="1" style="resizable=0;html=1;align=left;verticalAlign=bottom;" parent="SdNBDiDPCRayU0WkWFOt-407" connectable="0" vertex="1">
          <mxGeometry x="-1" relative="1" as="geometry">
            <mxPoint y="20" as="offset" />
          </mxGeometry>
        </mxCell>
        <mxCell id="SdNBDiDPCRayU0WkWFOt-409" value="1..N" style="resizable=0;html=1;align=right;verticalAlign=bottom;" parent="SdNBDiDPCRayU0WkWFOt-407" connectable="0" vertex="1">
          <mxGeometry x="1" relative="1" as="geometry">
            <mxPoint x="25" y="20" as="offset" />
          </mxGeometry>
        </mxCell>
        <mxCell id="SdNBDiDPCRayU0WkWFOt-410" value="je urcena pro &amp;gt;" style="text;html=1;align=center;verticalAlign=middle;resizable=0;points=[];autosize=1;strokeColor=none;fillColor=none;" parent="1" vertex="1">
          <mxGeometry x="-408" y="695" width="100" height="30" as="geometry" />
        </mxCell>
        <mxCell id="SdNBDiDPCRayU0WkWFOt-411" value="&lt;&lt;week&gt;&gt;&#xa;Nabidka" style="shape=table;startSize=30;container=1;collapsible=1;childLayout=tableLayout;fixedRows=1;rowLines=0;fontStyle=1;align=center;resizeLast=1;" parent="1" vertex="1">
          <mxGeometry x="-5" y="55" width="180" height="220" as="geometry" />
        </mxCell>
        <mxCell id="SdNBDiDPCRayU0WkWFOt-412" value="" style="shape=tableRow;horizontal=0;startSize=0;swimlaneHead=0;swimlaneBody=0;fillColor=none;collapsible=0;dropTarget=0;points=[[0,0.5],[1,0.5]];portConstraint=eastwest;top=0;left=0;right=0;bottom=1;" parent="SdNBDiDPCRayU0WkWFOt-411" vertex="1">
          <mxGeometry y="30" width="180" height="30" as="geometry" />
        </mxCell>
        <mxCell id="SdNBDiDPCRayU0WkWFOt-413" value="D" style="shape=partialRectangle;connectable=0;fillColor=none;top=0;left=0;bottom=0;right=0;fontStyle=1;overflow=hidden;" parent="SdNBDiDPCRayU0WkWFOt-412" vertex="1">
          <mxGeometry width="30" height="30" as="geometry">
            <mxRectangle width="30" height="30" as="alternateBounds" />
          </mxGeometry>
        </mxCell>
        <mxCell id="SdNBDiDPCRayU0WkWFOt-414" value="Evidencni cislo" style="shape=partialRectangle;connectable=0;fillColor=none;top=0;left=0;bottom=0;right=0;align=left;spacingLeft=6;fontStyle=5;overflow=hidden;" parent="SdNBDiDPCRayU0WkWFOt-412" vertex="1">
          <mxGeometry x="30" width="150" height="30" as="geometry">
            <mxRectangle width="150" height="30" as="alternateBounds" />
          </mxGeometry>
        </mxCell>
        <mxCell id="SdNBDiDPCRayU0WkWFOt-415" value="" style="shape=tableRow;horizontal=0;startSize=0;swimlaneHead=0;swimlaneBody=0;fillColor=none;collapsible=0;dropTarget=0;points=[[0,0.5],[1,0.5]];portConstraint=eastwest;top=0;left=0;right=0;bottom=0;" parent="SdNBDiDPCRayU0WkWFOt-411" vertex="1">
          <mxGeometry y="60" width="180" height="30" as="geometry" />
        </mxCell>
        <mxCell id="SdNBDiDPCRayU0WkWFOt-416" value="+" style="shape=partialRectangle;connectable=0;fillColor=none;top=0;left=0;bottom=0;right=0;editable=1;overflow=hidden;" parent="SdNBDiDPCRayU0WkWFOt-415" vertex="1">
          <mxGeometry width="30" height="30" as="geometry">
            <mxRectangle width="30" height="30" as="alternateBounds" />
          </mxGeometry>
        </mxCell>
        <mxCell id="SdNBDiDPCRayU0WkWFOt-417" value="Datum podani" style="shape=partialRectangle;connectable=0;fillColor=none;top=0;left=0;bottom=0;right=0;align=left;spacingLeft=6;overflow=hidden;" parent="SdNBDiDPCRayU0WkWFOt-415" vertex="1">
          <mxGeometry x="30" width="150" height="30" as="geometry">
            <mxRectangle width="150" height="30" as="alternateBounds" />
          </mxGeometry>
        </mxCell>
        <mxCell id="SdNBDiDPCRayU0WkWFOt-418" value="" style="shape=tableRow;horizontal=0;startSize=0;swimlaneHead=0;swimlaneBody=0;fillColor=none;collapsible=0;dropTarget=0;points=[[0,0.5],[1,0.5]];portConstraint=eastwest;top=0;left=0;right=0;bottom=0;" parent="SdNBDiDPCRayU0WkWFOt-411" vertex="1">
          <mxGeometry y="90" width="180" height="30" as="geometry" />
        </mxCell>
        <mxCell id="SdNBDiDPCRayU0WkWFOt-419" value="+" style="shape=partialRectangle;connectable=0;fillColor=none;top=0;left=0;bottom=0;right=0;editable=1;overflow=hidden;" parent="SdNBDiDPCRayU0WkWFOt-418" vertex="1">
          <mxGeometry width="30" height="30" as="geometry">
            <mxRectangle width="30" height="30" as="alternateBounds" />
          </mxGeometry>
        </mxCell>
        <mxCell id="SdNBDiDPCRayU0WkWFOt-420" value="Cas podani" style="shape=partialRectangle;connectable=0;fillColor=none;top=0;left=0;bottom=0;right=0;align=left;spacingLeft=6;overflow=hidden;" parent="SdNBDiDPCRayU0WkWFOt-418" vertex="1">
          <mxGeometry x="30" width="150" height="30" as="geometry">
            <mxRectangle width="150" height="30" as="alternateBounds" />
          </mxGeometry>
        </mxCell>
        <mxCell id="SdNBDiDPCRayU0WkWFOt-421" value="" style="shape=tableRow;horizontal=0;startSize=0;swimlaneHead=0;swimlaneBody=0;fillColor=none;collapsible=0;dropTarget=0;points=[[0,0.5],[1,0.5]];portConstraint=eastwest;top=0;left=0;right=0;bottom=0;" parent="SdNBDiDPCRayU0WkWFOt-411" vertex="1">
          <mxGeometry y="120" width="180" height="30" as="geometry" />
        </mxCell>
        <mxCell id="SdNBDiDPCRayU0WkWFOt-422" value="+" style="shape=partialRectangle;connectable=0;fillColor=none;top=0;left=0;bottom=0;right=0;editable=1;overflow=hidden;" parent="SdNBDiDPCRayU0WkWFOt-421" vertex="1">
          <mxGeometry width="30" height="30" as="geometry">
            <mxRectangle width="30" height="30" as="alternateBounds" />
          </mxGeometry>
        </mxCell>
        <mxCell id="SdNBDiDPCRayU0WkWFOt-423" value="Nabidnouta cena" style="shape=partialRectangle;connectable=0;fillColor=none;top=0;left=0;bottom=0;right=0;align=left;spacingLeft=6;overflow=hidden;" parent="SdNBDiDPCRayU0WkWFOt-421" vertex="1">
          <mxGeometry x="30" width="150" height="30" as="geometry">
            <mxRectangle width="150" height="30" as="alternateBounds" />
          </mxGeometry>
        </mxCell>
        <mxCell id="SdNBDiDPCRayU0WkWFOt-424" style="shape=tableRow;horizontal=0;startSize=0;swimlaneHead=0;swimlaneBody=0;fillColor=none;collapsible=0;dropTarget=0;points=[[0,0.5],[1,0.5]];portConstraint=eastwest;top=0;left=0;right=0;bottom=0;" parent="SdNBDiDPCRayU0WkWFOt-411" vertex="1">
          <mxGeometry y="150" width="180" height="30" as="geometry" />
        </mxCell>
        <mxCell id="SdNBDiDPCRayU0WkWFOt-425" value="+" style="shape=partialRectangle;connectable=0;fillColor=none;top=0;left=0;bottom=0;right=0;editable=1;overflow=hidden;" parent="SdNBDiDPCRayU0WkWFOt-424" vertex="1">
          <mxGeometry width="30" height="30" as="geometry">
            <mxRectangle width="30" height="30" as="alternateBounds" />
          </mxGeometry>
        </mxCell>
        <mxCell id="SdNBDiDPCRayU0WkWFOt-426" value="Popis" style="shape=partialRectangle;connectable=0;fillColor=none;top=0;left=0;bottom=0;right=0;align=left;spacingLeft=6;overflow=hidden;" parent="SdNBDiDPCRayU0WkWFOt-424" vertex="1">
          <mxGeometry x="30" width="150" height="30" as="geometry">
            <mxRectangle width="150" height="30" as="alternateBounds" />
          </mxGeometry>
        </mxCell>
        <mxCell id="SdNBDiDPCRayU0WkWFOt-427" style="shape=tableRow;horizontal=0;startSize=0;swimlaneHead=0;swimlaneBody=0;fillColor=none;collapsible=0;dropTarget=0;points=[[0,0.5],[1,0.5]];portConstraint=eastwest;top=0;left=0;right=0;bottom=0;" parent="SdNBDiDPCRayU0WkWFOt-411" vertex="1">
          <mxGeometry y="180" width="180" height="30" as="geometry" />
        </mxCell>
        <mxCell id="SdNBDiDPCRayU0WkWFOt-428" value="+" style="shape=partialRectangle;connectable=0;fillColor=none;top=0;left=0;bottom=0;right=0;editable=1;overflow=hidden;" parent="SdNBDiDPCRayU0WkWFOt-427" vertex="1">
          <mxGeometry width="30" height="30" as="geometry">
            <mxRectangle width="30" height="30" as="alternateBounds" />
          </mxGeometry>
        </mxCell>
        <mxCell id="SdNBDiDPCRayU0WkWFOt-429" value="Stav" style="shape=partialRectangle;connectable=0;fillColor=none;top=0;left=0;bottom=0;right=0;align=left;spacingLeft=6;overflow=hidden;" parent="SdNBDiDPCRayU0WkWFOt-427" vertex="1">
          <mxGeometry x="30" width="150" height="30" as="geometry">
            <mxRectangle width="150" height="30" as="alternateBounds" />
          </mxGeometry>
        </mxCell>
        <mxCell id="SdNBDiDPCRayU0WkWFOt-430" value="" style="endArrow=none;html=1;rounded=0;exitX=1;exitY=0.5;exitDx=0;exitDy=0;entryX=0;entryY=0.5;entryDx=0;entryDy=0;" parent="1" source="SdNBDiDPCRayU0WkWFOt-118" target="SdNBDiDPCRayU0WkWFOt-412" edge="1">
          <mxGeometry relative="1" as="geometry">
            <mxPoint x="-185" y="100" as="sourcePoint" />
            <mxPoint x="-25" y="100" as="targetPoint" />
          </mxGeometry>
        </mxCell>
        <mxCell id="SdNBDiDPCRayU0WkWFOt-431" value="1" style="resizable=0;html=1;align=left;verticalAlign=bottom;" parent="SdNBDiDPCRayU0WkWFOt-430" connectable="0" vertex="1">
          <mxGeometry x="-1" relative="1" as="geometry" />
        </mxCell>
        <mxCell id="SdNBDiDPCRayU0WkWFOt-432" value="0..N" style="resizable=0;html=1;align=right;verticalAlign=bottom;" parent="SdNBDiDPCRayU0WkWFOt-430" connectable="0" vertex="1">
          <mxGeometry x="1" relative="1" as="geometry" />
        </mxCell>
        <mxCell id="SdNBDiDPCRayU0WkWFOt-433" value="Podava&amp;gt;" style="text;html=1;align=center;verticalAlign=middle;resizable=0;points=[];autosize=1;strokeColor=none;fillColor=none;" parent="1" vertex="1">
          <mxGeometry x="-150" y="75" width="70" height="30" as="geometry" />
        </mxCell>
        <mxCell id="SdNBDiDPCRayU0WkWFOt-434" value="" style="endArrow=none;html=1;rounded=0;exitX=0.5;exitY=1;exitDx=0;exitDy=0;entryX=0.5;entryY=0;entryDx=0;entryDy=0;" parent="1" source="SdNBDiDPCRayU0WkWFOt-411" target="SdNBDiDPCRayU0WkWFOt-359" edge="1">
          <mxGeometry relative="1" as="geometry">
            <mxPoint x="95" y="275" as="sourcePoint" />
            <mxPoint x="85" y="325" as="targetPoint" />
          </mxGeometry>
        </mxCell>
        <mxCell id="SdNBDiDPCRayU0WkWFOt-435" value="0..N" style="resizable=0;html=1;align=left;verticalAlign=bottom;" parent="SdNBDiDPCRayU0WkWFOt-434" connectable="0" vertex="1">
          <mxGeometry x="-1" relative="1" as="geometry">
            <mxPoint y="20" as="offset" />
          </mxGeometry>
        </mxCell>
        <mxCell id="SdNBDiDPCRayU0WkWFOt-436" value="1" style="resizable=0;html=1;align=right;verticalAlign=bottom;" parent="SdNBDiDPCRayU0WkWFOt-434" connectable="0" vertex="1">
          <mxGeometry x="1" relative="1" as="geometry" />
        </mxCell>
        <mxCell id="SdNBDiDPCRayU0WkWFOt-437" value="je podana pro&amp;nbsp;&lt;span style=&quot;text-align: left;&quot;&gt;▼&lt;br&gt;&lt;/span&gt;" style="text;html=1;align=center;verticalAlign=middle;resizable=0;points=[];autosize=1;strokeColor=none;fillColor=none;" parent="1" vertex="1">
          <mxGeometry x="-17" y="300" width="110" height="30" as="geometry" />
        </mxCell>
        <mxCell id="SdNBDiDPCRayU0WkWFOt-438" value="" style="endArrow=none;html=1;rounded=0;entryX=1;entryY=0.5;entryDx=0;entryDy=0;" parent="1" target="SdNBDiDPCRayU0WkWFOt-427" edge="1">
          <mxGeometry relative="1" as="geometry">
            <mxPoint x="-705" y="655" as="sourcePoint" />
            <mxPoint y="555" as="targetPoint" />
            <Array as="points">
              <mxPoint x="-705" y="765" />
              <mxPoint x="235" y="765" />
              <mxPoint x="235" y="250" />
            </Array>
          </mxGeometry>
        </mxCell>
        <mxCell id="SdNBDiDPCRayU0WkWFOt-439" value="1" style="resizable=0;html=1;align=left;verticalAlign=bottom;" parent="SdNBDiDPCRayU0WkWFOt-438" connectable="0" vertex="1">
          <mxGeometry x="-1" relative="1" as="geometry">
            <mxPoint x="5" y="25" as="offset" />
          </mxGeometry>
        </mxCell>
        <mxCell id="SdNBDiDPCRayU0WkWFOt-440" value="1..N" style="resizable=0;html=1;align=right;verticalAlign=bottom;" parent="SdNBDiDPCRayU0WkWFOt-438" connectable="0" vertex="1">
          <mxGeometry x="1" relative="1" as="geometry">
            <mxPoint x="25" as="offset" />
          </mxGeometry>
        </mxCell>
        <mxCell id="SdNBDiDPCRayU0WkWFOt-446" value="Rozhoduje" style="shape=table;startSize=30;container=1;collapsible=1;childLayout=tableLayout;fixedRows=1;rowLines=0;fontStyle=1;align=center;resizeLast=1;" parent="1" vertex="1">
          <mxGeometry x="-415" y="830" width="180" height="70" as="geometry" />
        </mxCell>
        <mxCell id="SdNBDiDPCRayU0WkWFOt-456" value="" style="shape=tableRow;horizontal=0;startSize=0;swimlaneHead=0;swimlaneBody=0;fillColor=none;collapsible=0;dropTarget=0;points=[[0,0.5],[1,0.5]];portConstraint=eastwest;top=0;left=0;right=0;bottom=0;" parent="SdNBDiDPCRayU0WkWFOt-446" vertex="1">
          <mxGeometry y="30" width="180" height="30" as="geometry" />
        </mxCell>
        <mxCell id="SdNBDiDPCRayU0WkWFOt-457" value="+" style="shape=partialRectangle;connectable=0;fillColor=none;top=0;left=0;bottom=0;right=0;editable=1;overflow=hidden;" parent="SdNBDiDPCRayU0WkWFOt-456" vertex="1">
          <mxGeometry width="30" height="30" as="geometry">
            <mxRectangle width="30" height="30" as="alternateBounds" />
          </mxGeometry>
        </mxCell>
        <mxCell id="SdNBDiDPCRayU0WkWFOt-458" value="oduvodneni" style="shape=partialRectangle;connectable=0;fillColor=none;top=0;left=0;bottom=0;right=0;align=left;spacingLeft=6;overflow=hidden;" parent="SdNBDiDPCRayU0WkWFOt-456" vertex="1">
          <mxGeometry x="30" width="150" height="30" as="geometry">
            <mxRectangle width="150" height="30" as="alternateBounds" />
          </mxGeometry>
        </mxCell>
        <mxCell id="SdNBDiDPCRayU0WkWFOt-465" value="" style="endArrow=none;html=1;rounded=0;dashed=1;dashPattern=1 2;entryX=0.5;entryY=0;entryDx=0;entryDy=0;" parent="1" target="SdNBDiDPCRayU0WkWFOt-446" edge="1">
          <mxGeometry relative="1" as="geometry">
            <mxPoint x="-325" y="765" as="sourcePoint" />
            <mxPoint x="-610" y="430" as="targetPoint" />
          </mxGeometry>
        </mxCell>
        <mxCell id="SdNBDiDPCRayU0WkWFOt-466" value="" style="resizable=0;html=1;align=right;verticalAlign=bottom;" parent="SdNBDiDPCRayU0WkWFOt-465" connectable="0" vertex="1">
          <mxGeometry x="1" relative="1" as="geometry" />
        </mxCell>
        <mxCell id="SdNBDiDPCRayU0WkWFOt-467" value="&lt;span style=&quot;text-align: left;&quot;&gt;▼&lt;/span&gt;" style="text;html=1;align=center;verticalAlign=middle;resizable=0;points=[];autosize=1;strokeColor=none;fillColor=none;" parent="1" vertex="1">
          <mxGeometry x="-335" y="760" width="35" height="30" as="geometry" />
        </mxCell>
        <mxCell id="qrCNAr9uli-dRaa1Cgdu-5" value="" style="group" vertex="1" connectable="0" parent="1">
          <mxGeometry x="-230" y="535" width="170" height="110" as="geometry" />
        </mxCell>
        <mxCell id="qrCNAr9uli-dRaa1Cgdu-4" value="" style="rounded=1;whiteSpace=wrap;html=1;strokeWidth=2;fillWeight=4;hachureGap=8;hachureAngle=45;fillColor=#E2D0A5;sketch=1;" vertex="1" parent="qrCNAr9uli-dRaa1Cgdu-5">
          <mxGeometry width="170" height="110" as="geometry" />
        </mxCell>
        <mxCell id="qrCNAr9uli-dRaa1Cgdu-2" value="&lt;div style=&quot;&quot;&gt;&lt;span style=&quot;background-color: initial;&quot;&gt;&lt;b&gt;&lt;i&gt;*Org slouzka statu po konvertace diagramu do diagramu ro DB bude mit FK od kategorie OMV&lt;/i&gt;&lt;/b&gt;&lt;/span&gt;&lt;/div&gt;" style="text;html=1;strokeColor=none;fillColor=none;align=center;verticalAlign=middle;whiteSpace=wrap;rounded=0;" vertex="1" parent="qrCNAr9uli-dRaa1Cgdu-5">
          <mxGeometry x="20" y="15" width="130" height="80" as="geometry" />
        </mxCell>
      </root>
    </mxGraphModel>
  </diagram>
</mxfile>
